{
 "cells": [
  {
   "cell_type": "code",
   "execution_count": 4,
   "metadata": {
    "collapsed": true
   },
   "outputs": [],
   "source": [
    "from mido import MidiFile\n",
    "mid = MidiFile('song.mid')"
   ]
  },
  {
   "cell_type": "code",
   "execution_count": 8,
   "metadata": {
    "scrolled": false
   },
   "outputs": [
    {
     "name": "stdout",
     "output_type": "stream",
     "text": [
      "Track 0: \n",
      "<meta message time_signature numerator=4 denominator=4 clocks_per_click=24 notated_32nd_notes_per_beat=8 time=0>\n",
      "<meta message key_signature key='C' time=0>\n",
      "<meta message set_tempo tempo=600000 time=0>\n",
      "<meta message end_of_track time=1>\n",
      "Track 1: Acoustic Guitar\n",
      "control_change channel=1 control=121 value=0 time=0\n",
      "control_change channel=1 control=64 value=0 time=0\n",
      "control_change channel=1 control=91 value=48 time=0\n",
      "control_change channel=1 control=10 value=64 time=0\n",
      "control_change channel=1 control=7 value=100 time=0\n",
      "<meta message track_name name=u'Acoustic Guitar' time=0>\n",
      "control_change channel=1 control=68 value=0 time=0\n",
      "note_on channel=1 note=48 velocity=73 time=0\n",
      "note_on channel=1 note=60 velocity=73 time=0\n",
      "note_off channel=1 note=48 velocity=0 time=256\n",
      "note_off channel=1 note=60 velocity=0 time=0\n",
      "note_on channel=1 note=55 velocity=74 time=0\n",
      "note_on channel=1 note=60 velocity=74 time=0\n",
      "note_off channel=1 note=55 velocity=0 time=256\n",
      "note_off channel=1 note=60 velocity=0 time=0\n",
      "note_on channel=1 note=52 velocity=93 time=0\n",
      "note_on channel=1 note=67 velocity=93 time=0\n",
      "note_off channel=1 note=52 velocity=0 time=256\n",
      "note_off channel=1 note=67 velocity=0 time=0\n",
      "note_on channel=1 note=55 velocity=80 time=0\n",
      "note_on channel=1 note=67 velocity=80 time=0\n",
      "note_off channel=1 note=55 velocity=0 time=256\n",
      "note_off channel=1 note=67 velocity=0 time=0\n",
      "note_on channel=1 note=53 velocity=83 time=0\n",
      "note_on channel=1 note=69 velocity=83 time=0\n",
      "note_off channel=1 note=53 velocity=0 time=256\n",
      "note_off channel=1 note=69 velocity=0 time=0\n",
      "note_on channel=1 note=53 velocity=76 time=0\n",
      "note_on channel=1 note=69 velocity=76 time=0\n",
      "note_off channel=1 note=53 velocity=0 time=256\n",
      "note_off channel=1 note=69 velocity=0 time=0\n",
      "note_on channel=1 note=52 velocity=69 time=0\n",
      "note_on channel=1 note=67 velocity=69 time=0\n",
      "note_off channel=1 note=52 velocity=0 time=512\n",
      "note_off channel=1 note=67 velocity=0 time=0\n",
      "note_on channel=1 note=50 velocity=67 time=0\n",
      "note_on channel=1 note=65 velocity=67 time=0\n",
      "note_off channel=1 note=50 velocity=0 time=256\n",
      "note_off channel=1 note=65 velocity=0 time=0\n",
      "note_on channel=1 note=55 velocity=78 time=0\n",
      "note_on channel=1 note=65 velocity=78 time=0\n",
      "note_off channel=1 note=55 velocity=0 time=256\n",
      "note_off channel=1 note=65 velocity=0 time=0\n",
      "note_on channel=1 note=48 velocity=72 time=0\n",
      "note_on channel=1 note=64 velocity=72 time=0\n",
      "note_off channel=1 note=48 velocity=0 time=256\n",
      "note_off channel=1 note=64 velocity=0 time=0\n",
      "note_on channel=1 note=55 velocity=77 time=0\n",
      "note_on channel=1 note=64 velocity=77 time=0\n",
      "note_off channel=1 note=55 velocity=0 time=256\n",
      "note_off channel=1 note=64 velocity=0 time=0\n",
      "note_on channel=1 note=43 velocity=71 time=0\n",
      "note_on channel=1 note=62 velocity=71 time=0\n",
      "note_off channel=1 note=43 velocity=0 time=256\n",
      "note_off channel=1 note=62 velocity=0 time=0\n",
      "note_on channel=1 note=47 velocity=72 time=0\n",
      "note_on channel=1 note=62 velocity=72 time=0\n",
      "note_off channel=1 note=47 velocity=0 time=256\n",
      "note_off channel=1 note=62 velocity=0 time=0\n",
      "note_on channel=1 note=48 velocity=73 time=0\n",
      "note_on channel=1 note=60 velocity=73 time=0\n",
      "note_off channel=1 note=48 velocity=0 time=512\n",
      "note_off channel=1 note=60 velocity=0 time=0\n",
      "note_on channel=1 note=52 velocity=92 time=0\n",
      "note_on channel=1 note=67 velocity=92 time=0\n",
      "note_off channel=1 note=52 velocity=0 time=256\n",
      "note_off channel=1 note=67 velocity=0 time=0\n",
      "note_on channel=1 note=52 velocity=77 time=0\n",
      "note_on channel=1 note=67 velocity=77 time=0\n",
      "note_off channel=1 note=52 velocity=0 time=256\n",
      "note_off channel=1 note=67 velocity=0 time=0\n",
      "note_on channel=1 note=50 velocity=73 time=0\n",
      "note_on channel=1 note=65 velocity=73 time=0\n",
      "note_off channel=1 note=50 velocity=0 time=256\n",
      "note_off channel=1 note=65 velocity=0 time=0\n",
      "note_on channel=1 note=50 velocity=74 time=0\n",
      "note_on channel=1 note=65 velocity=74 time=0\n",
      "note_off channel=1 note=50 velocity=0 time=256\n",
      "note_off channel=1 note=65 velocity=0 time=0\n",
      "note_on channel=1 note=48 velocity=71 time=0\n",
      "note_on channel=1 note=64 velocity=71 time=0\n",
      "note_off channel=1 note=48 velocity=0 time=256\n",
      "note_off channel=1 note=64 velocity=0 time=0\n",
      "note_on channel=1 note=48 velocity=77 time=0\n",
      "note_on channel=1 note=64 velocity=77 time=0\n",
      "note_off channel=1 note=48 velocity=0 time=256\n",
      "note_off channel=1 note=64 velocity=0 time=0\n",
      "note_on channel=1 note=47 velocity=72 time=0\n",
      "note_on channel=1 note=62 velocity=72 time=0\n",
      "note_off channel=1 note=47 velocity=0 time=256\n",
      "note_off channel=1 note=62 velocity=0 time=0\n",
      "note_on channel=1 note=50 velocity=69 time=0\n",
      "note_on channel=1 note=55 velocity=69 time=0\n",
      "note_off channel=1 note=50 velocity=0 time=256\n",
      "note_off channel=1 note=55 velocity=0 time=0\n",
      "note_on channel=1 note=52 velocity=95 time=0\n",
      "note_on channel=1 note=67 velocity=95 time=0\n",
      "note_off channel=1 note=52 velocity=0 time=256\n",
      "note_off channel=1 note=67 velocity=0 time=0\n",
      "note_on channel=1 note=52 velocity=80 time=0\n",
      "note_on channel=1 note=67 velocity=80 time=0\n",
      "note_off channel=1 note=52 velocity=0 time=256\n",
      "note_off channel=1 note=67 velocity=0 time=0\n",
      "note_on channel=1 note=50 velocity=69 time=0\n",
      "note_on channel=1 note=65 velocity=69 time=0\n",
      "note_off channel=1 note=50 velocity=0 time=256\n",
      "note_off channel=1 note=65 velocity=0 time=0\n",
      "note_on channel=1 note=50 velocity=75 time=0\n",
      "note_on channel=1 note=65 velocity=75 time=0\n",
      "note_off channel=1 note=50 velocity=0 time=256\n",
      "note_off channel=1 note=65 velocity=0 time=0\n",
      "note_on channel=1 note=48 velocity=68 time=0\n",
      "note_on channel=1 note=64 velocity=68 time=0\n",
      "note_off channel=1 note=48 velocity=0 time=256\n",
      "note_off channel=1 note=64 velocity=0 time=0\n",
      "note_on channel=1 note=48 velocity=69 time=0\n",
      "note_on channel=1 note=64 velocity=69 time=0\n",
      "note_off channel=1 note=48 velocity=0 time=256\n",
      "note_off channel=1 note=64 velocity=0 time=0\n",
      "note_on channel=1 note=47 velocity=65 time=0\n",
      "note_on channel=1 note=62 velocity=65 time=0\n",
      "note_off channel=1 note=47 velocity=0 time=256\n",
      "note_off channel=1 note=62 velocity=0 time=0\n",
      "note_on channel=1 note=50 velocity=63 time=0\n",
      "note_on channel=1 note=55 velocity=63 time=0\n",
      "note_off channel=1 note=50 velocity=0 time=256\n",
      "note_off channel=1 note=55 velocity=0 time=0\n",
      "note_on channel=1 note=48 velocity=87 time=0\n",
      "note_on channel=1 note=60 velocity=87 time=0\n",
      "note_off channel=1 note=48 velocity=0 time=256\n",
      "note_off channel=1 note=60 velocity=0 time=0\n",
      "note_on channel=1 note=55 velocity=80 time=0\n",
      "note_on channel=1 note=60 velocity=80 time=0\n",
      "note_off channel=1 note=55 velocity=0 time=256\n",
      "note_off channel=1 note=60 velocity=0 time=0\n",
      "note_on channel=1 note=52 velocity=91 time=0\n",
      "note_on channel=1 note=67 velocity=91 time=0\n",
      "note_off channel=1 note=52 velocity=0 time=256\n",
      "note_off channel=1 note=67 velocity=0 time=0\n",
      "note_on channel=1 note=55 velocity=76 time=0\n",
      "note_on channel=1 note=67 velocity=76 time=0\n",
      "note_off channel=1 note=55 velocity=0 time=256\n",
      "note_off channel=1 note=67 velocity=0 time=0\n",
      "note_on channel=1 note=53 velocity=77 time=0\n",
      "note_on channel=1 note=69 velocity=77 time=0\n",
      "note_off channel=1 note=53 velocity=0 time=256\n",
      "note_off channel=1 note=69 velocity=0 time=0\n",
      "note_on channel=1 note=53 velocity=75 time=0\n",
      "note_on channel=1 note=69 velocity=75 time=0\n",
      "note_off channel=1 note=53 velocity=0 time=256\n",
      "note_off channel=1 note=69 velocity=0 time=0\n",
      "note_on channel=1 note=52 velocity=70 time=0\n",
      "note_on channel=1 note=67 velocity=70 time=0\n",
      "note_off channel=1 note=52 velocity=0 time=512\n",
      "note_off channel=1 note=67 velocity=0 time=0\n",
      "note_on channel=1 note=50 velocity=69 time=0\n",
      "note_on channel=1 note=65 velocity=69 time=0\n",
      "note_off channel=1 note=50 velocity=0 time=256\n",
      "note_off channel=1 note=65 velocity=0 time=0\n",
      "note_on channel=1 note=55 velocity=77 time=0\n",
      "note_on channel=1 note=65 velocity=77 time=0\n",
      "note_off channel=1 note=55 velocity=0 time=256\n",
      "note_off channel=1 note=65 velocity=0 time=0\n",
      "note_on channel=1 note=48 velocity=72 time=0\n",
      "note_on channel=1 note=64 velocity=72 time=0\n",
      "note_off channel=1 note=48 velocity=0 time=256\n",
      "note_off channel=1 note=64 velocity=0 time=0\n",
      "note_on channel=1 note=55 velocity=79 time=0\n",
      "note_on channel=1 note=64 velocity=79 time=0\n",
      "note_off channel=1 note=55 velocity=0 time=256\n",
      "note_off channel=1 note=64 velocity=0 time=0\n",
      "note_on channel=1 note=43 velocity=74 time=0\n",
      "note_on channel=1 note=62 velocity=74 time=0\n",
      "note_off channel=1 note=43 velocity=0 time=256\n",
      "note_off channel=1 note=62 velocity=0 time=0\n",
      "note_on channel=1 note=47 velocity=78 time=0\n",
      "note_on channel=1 note=62 velocity=78 time=0\n",
      "note_off channel=1 note=47 velocity=0 time=256\n",
      "note_off channel=1 note=62 velocity=0 time=0\n",
      "note_on channel=1 note=48 velocity=71 time=0\n",
      "note_on channel=1 note=60 velocity=71 time=0\n",
      "note_off channel=1 note=48 velocity=0 time=512\n",
      "note_off channel=1 note=60 velocity=0 time=0\n",
      "<meta message end_of_track time=1>\n",
      "Track 2: Tab\n",
      "control_change channel=0 control=121 value=0 time=0\n",
      "control_change channel=0 control=64 value=0 time=0\n",
      "control_change channel=0 control=91 value=48 time=0\n",
      "control_change channel=0 control=10 value=64 time=0\n",
      "control_change channel=0 control=7 value=100 time=0\n",
      "<meta message track_name name=u'Tab' time=0>\n",
      "note_on channel=0 note=48 velocity=70 time=0\n",
      "note_on channel=0 note=60 velocity=70 time=0\n",
      "note_off channel=0 note=48 velocity=0 time=256\n",
      "note_off channel=0 note=60 velocity=0 time=0\n",
      "note_on channel=0 note=55 velocity=72 time=0\n",
      "note_on channel=0 note=60 velocity=72 time=0\n",
      "note_off channel=0 note=55 velocity=0 time=256\n",
      "note_off channel=0 note=60 velocity=0 time=0\n",
      "note_on channel=0 note=52 velocity=89 time=0\n",
      "note_on channel=0 note=67 velocity=89 time=0\n",
      "note_off channel=0 note=52 velocity=0 time=256\n",
      "note_off channel=0 note=67 velocity=0 time=0\n",
      "note_on channel=0 note=55 velocity=80 time=0\n",
      "note_on channel=0 note=67 velocity=80 time=0\n",
      "note_off channel=0 note=55 velocity=0 time=256\n",
      "note_off channel=0 note=67 velocity=0 time=0\n",
      "note_on channel=0 note=53 velocity=82 time=0\n",
      "note_on channel=0 note=69 velocity=82 time=0\n",
      "note_off channel=0 note=53 velocity=0 time=256\n",
      "note_off channel=0 note=69 velocity=0 time=0\n",
      "note_on channel=0 note=53 velocity=77 time=0\n",
      "note_on channel=0 note=69 velocity=77 time=0\n",
      "note_off channel=0 note=53 velocity=0 time=256\n",
      "note_off channel=0 note=69 velocity=0 time=0\n",
      "note_on channel=0 note=52 velocity=68 time=0\n",
      "note_on channel=0 note=67 velocity=68 time=0\n",
      "note_off channel=0 note=52 velocity=0 time=512\n",
      "note_off channel=0 note=67 velocity=0 time=0\n",
      "note_on channel=0 note=50 velocity=71 time=0\n",
      "note_on channel=0 note=65 velocity=71 time=0\n",
      "note_off channel=0 note=50 velocity=0 time=256\n",
      "note_off channel=0 note=65 velocity=0 time=0\n",
      "note_on channel=0 note=55 velocity=74 time=0\n",
      "note_on channel=0 note=65 velocity=74 time=0\n",
      "note_off channel=0 note=55 velocity=0 time=256\n",
      "note_off channel=0 note=65 velocity=0 time=0\n",
      "note_on channel=0 note=48 velocity=69 time=0\n",
      "note_on channel=0 note=64 velocity=69 time=0\n",
      "note_off channel=0 note=48 velocity=0 time=256\n",
      "note_off channel=0 note=64 velocity=0 time=0\n",
      "note_on channel=0 note=55 velocity=75 time=0\n"
     ]
    },
    {
     "name": "stdout",
     "output_type": "stream",
     "text": [
      "note_on channel=0 note=64 velocity=75 time=0\n",
      "note_off channel=0 note=55 velocity=0 time=256\n",
      "note_off channel=0 note=64 velocity=0 time=0\n",
      "note_on channel=0 note=43 velocity=70 time=0\n",
      "note_on channel=0 note=62 velocity=70 time=0\n",
      "note_off channel=0 note=43 velocity=0 time=256\n",
      "note_off channel=0 note=62 velocity=0 time=0\n",
      "note_on channel=0 note=47 velocity=74 time=0\n",
      "note_on channel=0 note=62 velocity=74 time=0\n",
      "note_off channel=0 note=47 velocity=0 time=256\n",
      "note_off channel=0 note=62 velocity=0 time=0\n",
      "note_on channel=0 note=48 velocity=73 time=0\n",
      "note_on channel=0 note=60 velocity=73 time=0\n",
      "note_off channel=0 note=48 velocity=0 time=512\n",
      "note_off channel=0 note=60 velocity=0 time=0\n",
      "note_on channel=0 note=52 velocity=89 time=0\n",
      "note_on channel=0 note=67 velocity=89 time=0\n",
      "note_off channel=0 note=52 velocity=0 time=256\n",
      "note_off channel=0 note=67 velocity=0 time=0\n",
      "note_on channel=0 note=52 velocity=78 time=0\n",
      "note_on channel=0 note=67 velocity=78 time=0\n",
      "note_off channel=0 note=52 velocity=0 time=256\n",
      "note_off channel=0 note=67 velocity=0 time=0\n",
      "note_on channel=0 note=50 velocity=70 time=0\n",
      "note_on channel=0 note=65 velocity=70 time=0\n",
      "note_off channel=0 note=50 velocity=0 time=256\n",
      "note_off channel=0 note=65 velocity=0 time=0\n",
      "note_on channel=0 note=50 velocity=69 time=0\n",
      "note_on channel=0 note=65 velocity=69 time=0\n",
      "note_off channel=0 note=50 velocity=0 time=256\n",
      "note_off channel=0 note=65 velocity=0 time=0\n",
      "note_on channel=0 note=48 velocity=67 time=0\n",
      "note_on channel=0 note=64 velocity=67 time=0\n",
      "note_off channel=0 note=48 velocity=0 time=256\n",
      "note_off channel=0 note=64 velocity=0 time=0\n",
      "note_on channel=0 note=48 velocity=74 time=0\n",
      "note_on channel=0 note=64 velocity=74 time=0\n",
      "note_off channel=0 note=48 velocity=0 time=256\n",
      "note_off channel=0 note=64 velocity=0 time=0\n",
      "note_on channel=0 note=47 velocity=74 time=0\n",
      "note_on channel=0 note=62 velocity=74 time=0\n",
      "note_off channel=0 note=47 velocity=0 time=256\n",
      "note_off channel=0 note=62 velocity=0 time=0\n",
      "note_on channel=0 note=50 velocity=71 time=0\n",
      "note_on channel=0 note=55 velocity=71 time=0\n",
      "note_off channel=0 note=50 velocity=0 time=256\n",
      "note_off channel=0 note=55 velocity=0 time=0\n",
      "note_on channel=0 note=52 velocity=92 time=0\n",
      "note_on channel=0 note=67 velocity=92 time=0\n",
      "note_off channel=0 note=52 velocity=0 time=256\n",
      "note_off channel=0 note=67 velocity=0 time=0\n",
      "note_on channel=0 note=52 velocity=76 time=0\n",
      "note_on channel=0 note=67 velocity=76 time=0\n",
      "note_off channel=0 note=52 velocity=0 time=256\n",
      "note_off channel=0 note=67 velocity=0 time=0\n",
      "note_on channel=0 note=50 velocity=75 time=0\n",
      "note_on channel=0 note=65 velocity=75 time=0\n",
      "note_off channel=0 note=50 velocity=0 time=256\n",
      "note_off channel=0 note=65 velocity=0 time=0\n",
      "note_on channel=0 note=50 velocity=73 time=0\n",
      "note_on channel=0 note=65 velocity=73 time=0\n",
      "note_off channel=0 note=50 velocity=0 time=256\n",
      "note_off channel=0 note=65 velocity=0 time=0\n",
      "note_on channel=0 note=48 velocity=72 time=0\n",
      "note_on channel=0 note=64 velocity=72 time=0\n",
      "note_off channel=0 note=48 velocity=0 time=256\n",
      "note_off channel=0 note=64 velocity=0 time=0\n",
      "note_on channel=0 note=48 velocity=73 time=0\n",
      "note_on channel=0 note=64 velocity=73 time=0\n",
      "note_off channel=0 note=48 velocity=0 time=256\n",
      "note_off channel=0 note=64 velocity=0 time=0\n",
      "note_on channel=0 note=47 velocity=75 time=0\n",
      "note_on channel=0 note=62 velocity=75 time=0\n",
      "note_off channel=0 note=47 velocity=0 time=256\n",
      "note_off channel=0 note=62 velocity=0 time=0\n",
      "note_on channel=0 note=50 velocity=65 time=0\n",
      "note_on channel=0 note=55 velocity=65 time=0\n",
      "note_off channel=0 note=50 velocity=0 time=256\n",
      "note_off channel=0 note=55 velocity=0 time=0\n",
      "note_on channel=0 note=48 velocity=83 time=0\n",
      "note_on channel=0 note=60 velocity=83 time=0\n",
      "note_off channel=0 note=48 velocity=0 time=256\n",
      "note_off channel=0 note=60 velocity=0 time=0\n",
      "note_on channel=0 note=55 velocity=76 time=0\n",
      "note_on channel=0 note=60 velocity=76 time=0\n",
      "note_off channel=0 note=55 velocity=0 time=256\n",
      "note_off channel=0 note=60 velocity=0 time=0\n",
      "note_on channel=0 note=52 velocity=89 time=0\n",
      "note_on channel=0 note=67 velocity=89 time=0\n",
      "note_off channel=0 note=52 velocity=0 time=256\n",
      "note_off channel=0 note=67 velocity=0 time=0\n",
      "note_on channel=0 note=55 velocity=79 time=0\n",
      "note_on channel=0 note=67 velocity=79 time=0\n",
      "note_off channel=0 note=55 velocity=0 time=256\n",
      "note_off channel=0 note=67 velocity=0 time=0\n",
      "note_on channel=0 note=53 velocity=81 time=0\n",
      "note_on channel=0 note=69 velocity=81 time=0\n",
      "note_off channel=0 note=53 velocity=0 time=256\n",
      "note_off channel=0 note=69 velocity=0 time=0\n",
      "note_on channel=0 note=53 velocity=78 time=0\n",
      "note_on channel=0 note=69 velocity=78 time=0\n",
      "note_off channel=0 note=53 velocity=0 time=256\n",
      "note_off channel=0 note=69 velocity=0 time=0\n",
      "note_on channel=0 note=52 velocity=69 time=0\n",
      "note_on channel=0 note=67 velocity=69 time=0\n",
      "note_off channel=0 note=52 velocity=0 time=512\n",
      "note_off channel=0 note=67 velocity=0 time=0\n",
      "note_on channel=0 note=50 velocity=69 time=0\n",
      "note_on channel=0 note=65 velocity=69 time=0\n",
      "note_off channel=0 note=50 velocity=0 time=256\n",
      "note_off channel=0 note=65 velocity=0 time=0\n",
      "note_on channel=0 note=55 velocity=73 time=0\n",
      "note_on channel=0 note=65 velocity=73 time=0\n",
      "note_off channel=0 note=55 velocity=0 time=256\n",
      "note_off channel=0 note=65 velocity=0 time=0\n",
      "note_on channel=0 note=48 velocity=72 time=0\n",
      "note_on channel=0 note=64 velocity=72 time=0\n",
      "note_off channel=0 note=48 velocity=0 time=256\n",
      "note_off channel=0 note=64 velocity=0 time=0\n",
      "note_on channel=0 note=55 velocity=79 time=0\n",
      "note_on channel=0 note=64 velocity=79 time=0\n",
      "note_off channel=0 note=55 velocity=0 time=256\n",
      "note_off channel=0 note=64 velocity=0 time=0\n",
      "note_on channel=0 note=43 velocity=70 time=0\n",
      "note_on channel=0 note=62 velocity=70 time=0\n",
      "note_off channel=0 note=43 velocity=0 time=256\n",
      "note_off channel=0 note=62 velocity=0 time=0\n",
      "note_on channel=0 note=47 velocity=78 time=0\n",
      "note_on channel=0 note=62 velocity=78 time=0\n",
      "note_off channel=0 note=47 velocity=0 time=256\n",
      "note_off channel=0 note=62 velocity=0 time=0\n",
      "note_on channel=0 note=48 velocity=71 time=0\n",
      "note_on channel=0 note=60 velocity=71 time=0\n",
      "note_off channel=0 note=48 velocity=0 time=512\n",
      "note_off channel=0 note=60 velocity=0 time=0\n",
      "<meta message end_of_track time=1>\n"
     ]
    }
   ],
   "source": [
    "from mido import MidiFile\n",
    "mid = MidiFile('song.mid')\n",
    "\n",
    "for i, track in enumerate(mid.tracks):\n",
    "    print('Track {}: {}'.format(i, track.name))\n",
    "    for msg in track:\n",
    "        print(msg)\n"
   ]
  },
  {
   "cell_type": "code",
   "execution_count": 26,
   "metadata": {},
   "outputs": [
    {
     "name": "stdout",
     "output_type": "stream",
     "text": [
      "control_change channel=1 control=121 value=0 time=0\n",
      "control_change channel=1 control=64 value=0 time=0\n",
      "control_change channel=1 control=91 value=48 time=0\n",
      "control_change channel=1 control=10 value=64 time=0\n",
      "control_change channel=1 control=7 value=100 time=0\n",
      "control_change channel=1 control=68 value=0 time=0\n",
      "note_on channel=1 note=48 velocity=73 time=0\n",
      "note_on channel=1 note=60 velocity=73 time=0\n",
      "control_change channel=0 control=121 value=0 time=0\n",
      "control_change channel=0 control=64 value=0 time=0\n",
      "control_change channel=0 control=91 value=48 time=0\n",
      "control_change channel=0 control=10 value=64 time=0\n",
      "control_change channel=0 control=7 value=100 time=0\n",
      "note_on channel=0 note=48 velocity=70 time=0\n",
      "note_on channel=0 note=60 velocity=70 time=0\n",
      "note_off channel=1 note=48 velocity=0 time=0.6\n",
      "note_off channel=1 note=60 velocity=0 time=0\n",
      "note_on channel=1 note=55 velocity=74 time=0\n",
      "note_on channel=1 note=60 velocity=74 time=0\n",
      "note_off channel=0 note=48 velocity=0 time=0\n",
      "note_off channel=0 note=60 velocity=0 time=0\n",
      "note_on channel=0 note=55 velocity=72 time=0\n",
      "note_on channel=0 note=60 velocity=72 time=0\n",
      "note_off channel=1 note=55 velocity=0 time=0.6\n",
      "note_off channel=1 note=60 velocity=0 time=0\n",
      "note_on channel=1 note=52 velocity=93 time=0\n",
      "note_on channel=1 note=67 velocity=93 time=0\n",
      "note_off channel=0 note=55 velocity=0 time=0\n",
      "note_off channel=0 note=60 velocity=0 time=0\n",
      "note_on channel=0 note=52 velocity=89 time=0\n",
      "note_on channel=0 note=67 velocity=89 time=0\n",
      "note_off channel=1 note=52 velocity=0 time=0.6\n",
      "note_off channel=1 note=67 velocity=0 time=0\n",
      "note_on channel=1 note=55 velocity=80 time=0\n",
      "note_on channel=1 note=67 velocity=80 time=0\n",
      "note_off channel=0 note=52 velocity=0 time=0\n",
      "note_off channel=0 note=67 velocity=0 time=0\n",
      "note_on channel=0 note=55 velocity=80 time=0\n",
      "note_on channel=0 note=67 velocity=80 time=0\n",
      "note_off channel=1 note=55 velocity=0 time=0.6\n",
      "note_off channel=1 note=67 velocity=0 time=0\n",
      "note_on channel=1 note=53 velocity=83 time=0\n",
      "note_on channel=1 note=69 velocity=83 time=0\n",
      "note_off channel=0 note=55 velocity=0 time=0\n",
      "note_off channel=0 note=67 velocity=0 time=0\n",
      "note_on channel=0 note=53 velocity=82 time=0\n",
      "note_on channel=0 note=69 velocity=82 time=0\n",
      "note_off channel=1 note=53 velocity=0 time=0.6\n",
      "note_off channel=1 note=69 velocity=0 time=0\n",
      "note_on channel=1 note=53 velocity=76 time=0\n",
      "note_on channel=1 note=69 velocity=76 time=0\n",
      "note_off channel=0 note=53 velocity=0 time=0\n",
      "note_off channel=0 note=69 velocity=0 time=0\n",
      "note_on channel=0 note=53 velocity=77 time=0\n",
      "note_on channel=0 note=69 velocity=77 time=0\n",
      "note_off channel=1 note=53 velocity=0 time=0.6\n",
      "note_off channel=1 note=69 velocity=0 time=0\n",
      "note_on channel=1 note=52 velocity=69 time=0\n",
      "note_on channel=1 note=67 velocity=69 time=0\n",
      "note_off channel=0 note=53 velocity=0 time=0\n",
      "note_off channel=0 note=69 velocity=0 time=0\n",
      "note_on channel=0 note=52 velocity=68 time=0\n",
      "note_on channel=0 note=67 velocity=68 time=0\n",
      "note_off channel=1 note=52 velocity=0 time=1.2\n",
      "note_off channel=1 note=67 velocity=0 time=0\n",
      "note_on channel=1 note=50 velocity=67 time=0\n",
      "note_on channel=1 note=65 velocity=67 time=0\n",
      "note_off channel=0 note=52 velocity=0 time=0\n",
      "note_off channel=0 note=67 velocity=0 time=0\n",
      "note_on channel=0 note=50 velocity=71 time=0\n",
      "note_on channel=0 note=65 velocity=71 time=0\n",
      "note_off channel=1 note=50 velocity=0 time=0.6\n",
      "note_off channel=1 note=65 velocity=0 time=0\n",
      "note_on channel=1 note=55 velocity=78 time=0\n",
      "note_on channel=1 note=65 velocity=78 time=0\n",
      "note_off channel=0 note=50 velocity=0 time=0\n",
      "note_off channel=0 note=65 velocity=0 time=0\n",
      "note_on channel=0 note=55 velocity=74 time=0\n",
      "note_on channel=0 note=65 velocity=74 time=0\n",
      "note_off channel=1 note=55 velocity=0 time=0.6\n",
      "note_off channel=1 note=65 velocity=0 time=0\n",
      "note_on channel=1 note=48 velocity=72 time=0\n",
      "note_on channel=1 note=64 velocity=72 time=0\n",
      "note_off channel=0 note=55 velocity=0 time=0\n",
      "note_off channel=0 note=65 velocity=0 time=0\n",
      "note_on channel=0 note=48 velocity=69 time=0\n",
      "note_on channel=0 note=64 velocity=69 time=0\n",
      "note_off channel=1 note=48 velocity=0 time=0.6\n",
      "note_off channel=1 note=64 velocity=0 time=0\n",
      "note_on channel=1 note=55 velocity=77 time=0\n",
      "note_on channel=1 note=64 velocity=77 time=0\n",
      "note_off channel=0 note=48 velocity=0 time=0\n",
      "note_off channel=0 note=64 velocity=0 time=0\n",
      "note_on channel=0 note=55 velocity=75 time=0\n",
      "note_on channel=0 note=64 velocity=75 time=0\n",
      "note_off channel=1 note=55 velocity=0 time=0.6\n",
      "note_off channel=1 note=64 velocity=0 time=0\n",
      "note_on channel=1 note=43 velocity=71 time=0\n",
      "note_on channel=1 note=62 velocity=71 time=0\n",
      "note_off channel=0 note=55 velocity=0 time=0\n",
      "note_off channel=0 note=64 velocity=0 time=0\n",
      "note_on channel=0 note=43 velocity=70 time=0\n",
      "note_on channel=0 note=62 velocity=70 time=0\n",
      "note_off channel=1 note=43 velocity=0 time=0.6\n",
      "note_off channel=1 note=62 velocity=0 time=0\n",
      "note_on channel=1 note=47 velocity=72 time=0\n",
      "note_on channel=1 note=62 velocity=72 time=0\n",
      "note_off channel=0 note=43 velocity=0 time=0\n",
      "note_off channel=0 note=62 velocity=0 time=0\n",
      "note_on channel=0 note=47 velocity=74 time=0\n",
      "note_on channel=0 note=62 velocity=74 time=0\n",
      "note_off channel=1 note=47 velocity=0 time=0.6\n",
      "note_off channel=1 note=62 velocity=0 time=0\n",
      "note_on channel=1 note=48 velocity=73 time=0\n",
      "note_on channel=1 note=60 velocity=73 time=0\n",
      "note_off channel=0 note=47 velocity=0 time=0\n",
      "note_off channel=0 note=62 velocity=0 time=0\n",
      "note_on channel=0 note=48 velocity=73 time=0\n",
      "note_on channel=0 note=60 velocity=73 time=0\n",
      "note_off channel=1 note=48 velocity=0 time=1.2\n",
      "note_off channel=1 note=60 velocity=0 time=0\n",
      "note_on channel=1 note=52 velocity=92 time=0\n",
      "note_on channel=1 note=67 velocity=92 time=0\n",
      "note_off channel=0 note=48 velocity=0 time=0\n",
      "note_off channel=0 note=60 velocity=0 time=0\n",
      "note_on channel=0 note=52 velocity=89 time=0\n",
      "note_on channel=0 note=67 velocity=89 time=0\n",
      "note_off channel=1 note=52 velocity=0 time=0.6\n",
      "note_off channel=1 note=67 velocity=0 time=0\n",
      "note_on channel=1 note=52 velocity=77 time=0\n",
      "note_on channel=1 note=67 velocity=77 time=0\n",
      "note_off channel=0 note=52 velocity=0 time=0\n",
      "note_off channel=0 note=67 velocity=0 time=0\n",
      "note_on channel=0 note=52 velocity=78 time=0\n",
      "note_on channel=0 note=67 velocity=78 time=0\n",
      "note_off channel=1 note=52 velocity=0 time=0.6\n",
      "note_off channel=1 note=67 velocity=0 time=0\n",
      "note_on channel=1 note=50 velocity=73 time=0\n",
      "note_on channel=1 note=65 velocity=73 time=0\n",
      "note_off channel=0 note=52 velocity=0 time=0\n",
      "note_off channel=0 note=67 velocity=0 time=0\n",
      "note_on channel=0 note=50 velocity=70 time=0\n",
      "note_on channel=0 note=65 velocity=70 time=0\n",
      "note_off channel=1 note=50 velocity=0 time=0.6\n",
      "note_off channel=1 note=65 velocity=0 time=0\n",
      "note_on channel=1 note=50 velocity=74 time=0\n",
      "note_on channel=1 note=65 velocity=74 time=0\n",
      "note_off channel=0 note=50 velocity=0 time=0\n",
      "note_off channel=0 note=65 velocity=0 time=0\n",
      "note_on channel=0 note=50 velocity=69 time=0\n",
      "note_on channel=0 note=65 velocity=69 time=0\n",
      "note_off channel=1 note=50 velocity=0 time=0.6\n",
      "note_off channel=1 note=65 velocity=0 time=0\n",
      "note_on channel=1 note=48 velocity=71 time=0\n",
      "note_on channel=1 note=64 velocity=71 time=0\n",
      "note_off channel=0 note=50 velocity=0 time=0\n",
      "note_off channel=0 note=65 velocity=0 time=0\n",
      "note_on channel=0 note=48 velocity=67 time=0\n",
      "note_on channel=0 note=64 velocity=67 time=0\n",
      "note_off channel=1 note=48 velocity=0 time=0.6\n",
      "note_off channel=1 note=64 velocity=0 time=0\n",
      "note_on channel=1 note=48 velocity=77 time=0\n",
      "note_on channel=1 note=64 velocity=77 time=0\n",
      "note_off channel=0 note=48 velocity=0 time=0\n",
      "note_off channel=0 note=64 velocity=0 time=0\n",
      "note_on channel=0 note=48 velocity=74 time=0\n",
      "note_on channel=0 note=64 velocity=74 time=0\n",
      "note_off channel=1 note=48 velocity=0 time=0.6\n",
      "note_off channel=1 note=64 velocity=0 time=0\n",
      "note_on channel=1 note=47 velocity=72 time=0\n",
      "note_on channel=1 note=62 velocity=72 time=0\n",
      "note_off channel=0 note=48 velocity=0 time=0\n",
      "note_off channel=0 note=64 velocity=0 time=0\n",
      "note_on channel=0 note=47 velocity=74 time=0\n",
      "note_on channel=0 note=62 velocity=74 time=0\n",
      "note_off channel=1 note=47 velocity=0 time=0.6\n",
      "note_off channel=1 note=62 velocity=0 time=0\n",
      "note_on channel=1 note=50 velocity=69 time=0\n",
      "note_on channel=1 note=55 velocity=69 time=0\n",
      "note_off channel=0 note=47 velocity=0 time=0\n",
      "note_off channel=0 note=62 velocity=0 time=0\n",
      "note_on channel=0 note=50 velocity=71 time=0\n",
      "note_on channel=0 note=55 velocity=71 time=0\n"
     ]
    },
    {
     "name": "stdout",
     "output_type": "stream",
     "text": [
      "note_off channel=1 note=50 velocity=0 time=0.6\n",
      "note_off channel=1 note=55 velocity=0 time=0\n",
      "note_on channel=1 note=52 velocity=95 time=0\n",
      "note_on channel=1 note=67 velocity=95 time=0\n",
      "note_off channel=0 note=50 velocity=0 time=0\n",
      "note_off channel=0 note=55 velocity=0 time=0\n",
      "note_on channel=0 note=52 velocity=92 time=0\n",
      "note_on channel=0 note=67 velocity=92 time=0\n",
      "note_off channel=1 note=52 velocity=0 time=0.6\n",
      "note_off channel=1 note=67 velocity=0 time=0\n",
      "note_on channel=1 note=52 velocity=80 time=0\n",
      "note_on channel=1 note=67 velocity=80 time=0\n",
      "note_off channel=0 note=52 velocity=0 time=0\n",
      "note_off channel=0 note=67 velocity=0 time=0\n",
      "note_on channel=0 note=52 velocity=76 time=0\n",
      "note_on channel=0 note=67 velocity=76 time=0\n",
      "note_off channel=1 note=52 velocity=0 time=0.6\n",
      "note_off channel=1 note=67 velocity=0 time=0\n",
      "note_on channel=1 note=50 velocity=69 time=0\n",
      "note_on channel=1 note=65 velocity=69 time=0\n",
      "note_off channel=0 note=52 velocity=0 time=0\n",
      "note_off channel=0 note=67 velocity=0 time=0\n",
      "note_on channel=0 note=50 velocity=75 time=0\n",
      "note_on channel=0 note=65 velocity=75 time=0\n",
      "note_off channel=1 note=50 velocity=0 time=0.6\n",
      "note_off channel=1 note=65 velocity=0 time=0\n",
      "note_on channel=1 note=50 velocity=75 time=0\n",
      "note_on channel=1 note=65 velocity=75 time=0\n",
      "note_off channel=0 note=50 velocity=0 time=0\n",
      "note_off channel=0 note=65 velocity=0 time=0\n",
      "note_on channel=0 note=50 velocity=73 time=0\n",
      "note_on channel=0 note=65 velocity=73 time=0\n",
      "note_off channel=1 note=50 velocity=0 time=0.6\n",
      "note_off channel=1 note=65 velocity=0 time=0\n",
      "note_on channel=1 note=48 velocity=68 time=0\n",
      "note_on channel=1 note=64 velocity=68 time=0\n",
      "note_off channel=0 note=50 velocity=0 time=0\n",
      "note_off channel=0 note=65 velocity=0 time=0\n",
      "note_on channel=0 note=48 velocity=72 time=0\n",
      "note_on channel=0 note=64 velocity=72 time=0\n",
      "note_off channel=1 note=48 velocity=0 time=0.6\n",
      "note_off channel=1 note=64 velocity=0 time=0\n",
      "note_on channel=1 note=48 velocity=69 time=0\n",
      "note_on channel=1 note=64 velocity=69 time=0\n",
      "note_off channel=0 note=48 velocity=0 time=0\n",
      "note_off channel=0 note=64 velocity=0 time=0\n",
      "note_on channel=0 note=48 velocity=73 time=0\n",
      "note_on channel=0 note=64 velocity=73 time=0\n",
      "note_off channel=1 note=48 velocity=0 time=0.6\n",
      "note_off channel=1 note=64 velocity=0 time=0\n",
      "note_on channel=1 note=47 velocity=65 time=0\n",
      "note_on channel=1 note=62 velocity=65 time=0\n",
      "note_off channel=0 note=48 velocity=0 time=0\n",
      "note_off channel=0 note=64 velocity=0 time=0\n",
      "note_on channel=0 note=47 velocity=75 time=0\n",
      "note_on channel=0 note=62 velocity=75 time=0\n",
      "note_off channel=1 note=47 velocity=0 time=0.6\n",
      "note_off channel=1 note=62 velocity=0 time=0\n",
      "note_on channel=1 note=50 velocity=63 time=0\n",
      "note_on channel=1 note=55 velocity=63 time=0\n",
      "note_off channel=0 note=47 velocity=0 time=0\n",
      "note_off channel=0 note=62 velocity=0 time=0\n",
      "note_on channel=0 note=50 velocity=65 time=0\n",
      "note_on channel=0 note=55 velocity=65 time=0\n",
      "note_off channel=1 note=50 velocity=0 time=0.6\n",
      "note_off channel=1 note=55 velocity=0 time=0\n",
      "note_on channel=1 note=48 velocity=87 time=0\n",
      "note_on channel=1 note=60 velocity=87 time=0\n",
      "note_off channel=0 note=50 velocity=0 time=0\n",
      "note_off channel=0 note=55 velocity=0 time=0\n",
      "note_on channel=0 note=48 velocity=83 time=0\n",
      "note_on channel=0 note=60 velocity=83 time=0\n",
      "note_off channel=1 note=48 velocity=0 time=0.6\n",
      "note_off channel=1 note=60 velocity=0 time=0\n",
      "note_on channel=1 note=55 velocity=80 time=0\n",
      "note_on channel=1 note=60 velocity=80 time=0\n",
      "note_off channel=0 note=48 velocity=0 time=0\n",
      "note_off channel=0 note=60 velocity=0 time=0\n",
      "note_on channel=0 note=55 velocity=76 time=0\n",
      "note_on channel=0 note=60 velocity=76 time=0\n",
      "note_off channel=1 note=55 velocity=0 time=0.6\n",
      "note_off channel=1 note=60 velocity=0 time=0\n",
      "note_on channel=1 note=52 velocity=91 time=0\n",
      "note_on channel=1 note=67 velocity=91 time=0\n",
      "note_off channel=0 note=55 velocity=0 time=0\n",
      "note_off channel=0 note=60 velocity=0 time=0\n",
      "note_on channel=0 note=52 velocity=89 time=0\n",
      "note_on channel=0 note=67 velocity=89 time=0\n",
      "note_off channel=1 note=52 velocity=0 time=0.6\n",
      "note_off channel=1 note=67 velocity=0 time=0\n",
      "note_on channel=1 note=55 velocity=76 time=0\n",
      "note_on channel=1 note=67 velocity=76 time=0\n",
      "note_off channel=0 note=52 velocity=0 time=0\n",
      "note_off channel=0 note=67 velocity=0 time=0\n",
      "note_on channel=0 note=55 velocity=79 time=0\n",
      "note_on channel=0 note=67 velocity=79 time=0\n",
      "note_off channel=1 note=55 velocity=0 time=0.6\n",
      "note_off channel=1 note=67 velocity=0 time=0\n",
      "note_on channel=1 note=53 velocity=77 time=0\n",
      "note_on channel=1 note=69 velocity=77 time=0\n",
      "note_off channel=0 note=55 velocity=0 time=0\n",
      "note_off channel=0 note=67 velocity=0 time=0\n",
      "note_on channel=0 note=53 velocity=81 time=0\n",
      "note_on channel=0 note=69 velocity=81 time=0\n",
      "note_off channel=1 note=53 velocity=0 time=0.6\n",
      "note_off channel=1 note=69 velocity=0 time=0\n",
      "note_on channel=1 note=53 velocity=75 time=0\n",
      "note_on channel=1 note=69 velocity=75 time=0\n",
      "note_off channel=0 note=53 velocity=0 time=0\n",
      "note_off channel=0 note=69 velocity=0 time=0\n",
      "note_on channel=0 note=53 velocity=78 time=0\n",
      "note_on channel=0 note=69 velocity=78 time=0\n",
      "note_off channel=1 note=53 velocity=0 time=0.6\n",
      "note_off channel=1 note=69 velocity=0 time=0\n",
      "note_on channel=1 note=52 velocity=70 time=0\n",
      "note_on channel=1 note=67 velocity=70 time=0\n",
      "note_off channel=0 note=53 velocity=0 time=0\n",
      "note_off channel=0 note=69 velocity=0 time=0\n",
      "note_on channel=0 note=52 velocity=69 time=0\n",
      "note_on channel=0 note=67 velocity=69 time=0\n",
      "note_off channel=1 note=52 velocity=0 time=1.2\n",
      "note_off channel=1 note=67 velocity=0 time=0\n",
      "note_on channel=1 note=50 velocity=69 time=0\n",
      "note_on channel=1 note=65 velocity=69 time=0\n",
      "note_off channel=0 note=52 velocity=0 time=0\n",
      "note_off channel=0 note=67 velocity=0 time=0\n",
      "note_on channel=0 note=50 velocity=69 time=0\n",
      "note_on channel=0 note=65 velocity=69 time=0\n",
      "note_off channel=1 note=50 velocity=0 time=0.6\n",
      "note_off channel=1 note=65 velocity=0 time=0\n",
      "note_on channel=1 note=55 velocity=77 time=0\n",
      "note_on channel=1 note=65 velocity=77 time=0\n",
      "note_off channel=0 note=50 velocity=0 time=0\n",
      "note_off channel=0 note=65 velocity=0 time=0\n",
      "note_on channel=0 note=55 velocity=73 time=0\n",
      "note_on channel=0 note=65 velocity=73 time=0\n",
      "note_off channel=1 note=55 velocity=0 time=0.6\n",
      "note_off channel=1 note=65 velocity=0 time=0\n",
      "note_on channel=1 note=48 velocity=72 time=0\n",
      "note_on channel=1 note=64 velocity=72 time=0\n",
      "note_off channel=0 note=55 velocity=0 time=0\n",
      "note_off channel=0 note=65 velocity=0 time=0\n",
      "note_on channel=0 note=48 velocity=72 time=0\n",
      "note_on channel=0 note=64 velocity=72 time=0\n",
      "note_off channel=1 note=48 velocity=0 time=0.6\n",
      "note_off channel=1 note=64 velocity=0 time=0\n",
      "note_on channel=1 note=55 velocity=79 time=0\n",
      "note_on channel=1 note=64 velocity=79 time=0\n",
      "note_off channel=0 note=48 velocity=0 time=0\n",
      "note_off channel=0 note=64 velocity=0 time=0\n",
      "note_on channel=0 note=55 velocity=79 time=0\n",
      "note_on channel=0 note=64 velocity=79 time=0\n",
      "note_off channel=1 note=55 velocity=0 time=0.6\n",
      "note_off channel=1 note=64 velocity=0 time=0\n",
      "note_on channel=1 note=43 velocity=74 time=0\n",
      "note_on channel=1 note=62 velocity=74 time=0\n",
      "note_off channel=0 note=55 velocity=0 time=0\n",
      "note_off channel=0 note=64 velocity=0 time=0\n",
      "note_on channel=0 note=43 velocity=70 time=0\n",
      "note_on channel=0 note=62 velocity=70 time=0\n",
      "note_off channel=1 note=43 velocity=0 time=0.6\n",
      "note_off channel=1 note=62 velocity=0 time=0\n",
      "note_on channel=1 note=47 velocity=78 time=0\n",
      "note_on channel=1 note=62 velocity=78 time=0\n",
      "note_off channel=0 note=43 velocity=0 time=0\n",
      "note_off channel=0 note=62 velocity=0 time=0\n",
      "note_on channel=0 note=47 velocity=78 time=0\n",
      "note_on channel=0 note=62 velocity=78 time=0\n",
      "note_off channel=1 note=47 velocity=0 time=0.6\n",
      "note_off channel=1 note=62 velocity=0 time=0\n",
      "note_on channel=1 note=48 velocity=71 time=0\n",
      "note_on channel=1 note=60 velocity=71 time=0\n",
      "note_off channel=0 note=47 velocity=0 time=0\n",
      "note_off channel=0 note=62 velocity=0 time=0\n",
      "note_on channel=0 note=48 velocity=71 time=0\n",
      "note_on channel=0 note=60 velocity=71 time=0\n",
      "note_off channel=1 note=48 velocity=0 time=1.2\n",
      "note_off channel=1 note=60 velocity=0 time=0\n",
      "note_off channel=0 note=48 velocity=0 time=0\n",
      "note_off channel=0 note=60 velocity=0 time=0\n"
     ]
    }
   ],
   "source": [
    "import mido\n",
    "\n",
    "for msg in MidiFile('song.mid').play():\n",
    "    print(msg)"
   ]
  },
  {
   "cell_type": "code",
   "execution_count": null,
   "metadata": {
    "collapsed": true
   },
   "outputs": [],
   "source": []
  }
 ],
 "metadata": {
  "kernelspec": {
   "display_name": "Python 2",
   "language": "python",
   "name": "python2"
  },
  "language_info": {
   "codemirror_mode": {
    "name": "ipython",
    "version": 2
   },
   "file_extension": ".py",
   "mimetype": "text/x-python",
   "name": "python",
   "nbconvert_exporter": "python",
   "pygments_lexer": "ipython2",
   "version": "2.7.13"
  }
 },
 "nbformat": 4,
 "nbformat_minor": 2
}
